<svg width="143" height="138" viewBox="0 0 143 138" fill="none" xmlns="http://www.w3.org/2000/svg">
<path d="M100.25 16.558H81.8322V12.8018C81.829 11.2815 81.2233 9.82443 80.1478 8.74984C79.0723 7.67525 77.6147 7.07078 76.0943 7.06885H66.2054C64.6842 7.07078 63.2259 7.67593 62.1502 8.75157C61.0746 9.82721 60.4695 11.2855 60.4675 12.8067V16.558H41.75C40.2288 16.56 38.7704 17.1651 37.6948 18.2408C36.6192 19.3164 36.014 20.7747 36.0121 22.2959V65.1959C36.0147 66.7167 36.6201 68.1744 37.6957 69.2495C38.7712 70.3246 40.2292 70.9294 41.75 70.9314H100.25C101.771 70.9294 103.229 70.3243 104.305 69.2486C105.381 68.173 105.986 66.7147 105.988 65.1935V22.2959C105.986 20.7747 105.381 19.3164 104.305 18.2408C103.229 17.1651 101.771 16.56 100.25 16.558ZM47.6609 69.208H41.75C40.6867 69.2067 39.6673 68.784 38.9152 68.0323C38.1632 67.2807 37.7398 66.2616 37.7378 65.1983V22.2959C37.7385 21.2318 38.1613 20.2114 38.9135 19.4588C39.6657 18.7061 40.6859 18.2826 41.75 18.2813H47.6609V69.208ZM62.1957 12.8018C62.197 11.7388 62.6199 10.7197 63.3715 9.968C64.1232 9.21631 65.1424 8.79345 66.2054 8.79216H76.0943C77.1574 8.79345 78.1765 9.21631 78.9282 9.968C79.6799 10.7197 80.1027 11.7388 80.104 12.8018V16.558H62.1957V12.8018ZM92.6108 69.208H49.3891V18.2813H92.6108V40.3651L87.5896 37.9934C87.3823 37.8958 87.1449 37.8844 86.9292 37.9616C86.7135 38.0388 86.5373 38.1984 86.4391 38.4053L80.1893 51.6385C80.1405 51.741 80.1123 51.8521 80.1065 51.9654C80.1006 52.0788 80.1172 52.1922 80.1552 52.2991C80.2341 52.5131 80.3932 52.6879 80.5988 52.7866L91.1264 57.7689C91.3336 57.8665 91.5711 57.8779 91.7868 57.8007C92.0025 57.7235 92.1787 57.5639 92.2769 57.3569L92.6108 56.6476V69.208ZM91.0825 55.8188L82.1198 51.5849L87.631 39.9142L96.5937 44.1578L91.0825 55.8188ZM104.262 65.1886C104.263 66.2536 103.84 67.2752 103.088 68.0289C102.336 68.7826 101.315 69.2067 100.25 69.208H94.339V53.2253C94.3338 53.1666 94.3223 53.1086 94.3049 53.0523L98.5266 44.1189C98.624 43.9116 98.6363 43.6745 98.5608 43.4583C98.4802 43.2445 98.3205 43.07 98.1147 42.9708L94.339 41.1938V18.2813H100.25C101.313 18.2826 102.333 18.7054 103.085 19.457C103.837 20.2086 104.26 21.2278 104.262 22.291V65.1886Z" fill="#5A3412"/>
<path d="M85.7006 32.9965C85.7006 29.9667 82.1199 27.5925 77.5496 27.5925C72.9792 27.5925 69.3937 29.9667 69.3937 32.9965C69.3937 36.0263 72.9768 38.3955 77.5496 38.3955C82.1223 38.3955 85.7006 36.0238 85.7006 32.9965ZM77.5496 36.6673C74.0639 36.6673 71.1219 34.9879 71.1219 32.9965C71.1219 31.005 74.0639 29.3207 77.5496 29.3207C81.0352 29.3207 83.9724 31.005 83.9724 32.9965C83.9724 34.9879 81.0303 36.6673 77.5496 36.6673Z" fill="#5A3412"/>
<path d="M68.2188 42.1395L57.9813 37.2986C57.7743 37.2017 57.5374 37.1907 57.3223 37.2679C57.1072 37.3451 56.9314 37.5042 56.8332 37.7105L53.4621 44.8256C53.4129 44.9279 53.3844 45.0389 53.3785 45.1523C53.3726 45.2656 53.3892 45.3791 53.4276 45.4859C53.4659 45.5928 53.5252 45.6909 53.6018 45.7747C53.6785 45.8584 53.771 45.926 53.8741 45.9737L64.1238 50.8145C64.2386 50.8695 64.3645 50.8978 64.4918 50.8974C64.5909 50.8986 64.6892 50.8813 64.7819 50.8462C64.8885 50.8083 64.9865 50.7495 65.0702 50.6734C65.1539 50.5972 65.2216 50.5052 65.2694 50.4026L68.6283 43.2875C68.6769 43.1853 68.705 43.0744 68.7107 42.9614C68.7165 42.8483 68.6999 42.7351 68.6618 42.6285C68.6238 42.5218 68.5651 42.4237 68.489 42.3398C68.413 42.2559 68.3212 42.1878 68.2188 42.1395ZM64.075 48.884L55.3999 44.7817L58.0227 39.2291L66.7075 43.3314L64.075 48.884Z" fill="#5A3412"/>
<g clip-path="url(#clip0_285_5144)">
<path fill-rule="evenodd" clip-rule="evenodd" d="M62.9008 70.7238C67.9628 71.5337 73.8347 71.5337 80.314 70.7238L81.124 74.9759C74.8471 77.6081 68.3678 77.4056 61.8884 74.9759L62.9008 70.7238ZM75.0496 59.9924C81.5289 61.4098 86.5909 66.6742 88.0083 73.1536L120 77.6081V81.4552H108.459C110.888 85.5048 107.851 90.7693 102.992 90.7693C98.1322 90.7693 95.2975 85.5048 97.5248 81.4552H88.0083C85.9835 88.947 79.0992 94.4139 71 94.4139C62.9008 94.4139 56.0165 88.947 53.9917 81.4552H44.8802C47.3099 85.5048 44.2727 90.7693 39.4132 90.7693C34.5537 90.7693 31.5165 85.5048 33.9463 81.4552H22V76.7982L53.9917 72.7486C55.6116 66.4718 60.4711 61.4098 66.9504 59.9924L68.7727 48.0461H73.2273L75.0496 59.9924Z" fill="#5A3412"/>
</g>
<path d="M3.34221 121.21V104.868L1.28951 104.631V103.052H4.81594C5.09665 103.052 5.35981 103.043 5.60544 103.026C5.85106 103.008 6.07036 102.991 6.26335 102.973C7.42128 102.903 8.36868 102.868 9.10554 102.868C11.3337 102.868 13.053 103.254 14.2636 104.026C15.4742 104.798 16.0794 105.947 16.0794 107.473C16.0794 108.684 15.7724 109.719 15.1584 110.579C14.5443 111.421 13.6495 111.973 12.4741 112.237C13.3864 112.254 14.2197 112.482 14.9741 112.921C15.7286 113.342 16.3163 113.921 16.7374 114.658C17.176 115.377 17.3953 116.193 17.3953 117.105C17.3953 119.07 16.6584 120.57 15.1847 121.605C13.7109 122.64 11.5793 123.158 8.78975 123.158C8.38622 123.158 7.91252 123.149 7.36865 123.132C6.84232 123.114 6.4388 123.096 6.15808 123.079C5.93001 123.061 5.66684 123.044 5.36859 123.026C5.07033 123.009 4.73699 123 4.36856 123H1.23688V121.632L3.34221 121.21ZM6.60547 111.684C6.88618 111.736 7.35988 111.763 8.02656 111.763H9.15818C10.4389 111.763 11.3951 111.438 12.0267 110.789C12.6758 110.122 13.0004 109.157 13.0004 107.894C13.0004 106.771 12.632 105.921 11.8951 105.342C11.1758 104.763 10.1758 104.473 8.89501 104.473C8.56167 104.473 8.15815 104.482 7.68445 104.499C7.21075 104.517 6.85986 104.57 6.63178 104.657L6.60547 111.684ZM6.57915 121.105C6.78968 121.228 7.1932 121.333 7.78971 121.421C8.40377 121.509 9.00905 121.553 9.60556 121.553C10.9389 121.553 12.0004 121.21 12.7899 120.526C13.5794 119.824 13.9741 118.816 13.9741 117.5C13.9741 116.166 13.6057 115.166 12.8688 114.5C12.132 113.833 11.0705 113.5 9.68451 113.5H8.26341C7.47392 113.5 6.91249 113.526 6.57915 113.579V121.105ZM21.6117 121.368V104.605L19.559 104.052V102.657L24.1907 102.105L24.8486 102.368L24.8223 108.263L24.6907 110.184C25.3925 109.587 26.1908 109.131 27.0855 108.815C27.9803 108.482 28.8224 108.315 29.6119 108.315C30.7874 108.315 31.6822 108.561 32.2962 109.052C32.9278 109.543 33.3577 110.272 33.5857 111.236C33.8138 112.201 33.9191 113.491 33.9015 115.105V121.368L35.7437 121.658V123H28.6119V121.658L30.6646 121.368V116.052C30.6646 114.684 30.612 113.631 30.5067 112.894C30.4014 112.14 30.147 111.561 29.7435 111.158C29.34 110.736 28.7172 110.526 27.875 110.526C26.682 110.526 25.6732 110.824 24.8486 111.421V121.368L26.4803 121.658V123H19.7169V121.658L21.6117 121.368ZM44.1237 108.315C45.8255 108.315 47.1413 108.693 48.0712 109.447C49.001 110.201 49.466 111.465 49.466 113.237V121.658H51.0976V122.711C50.7818 122.904 50.3695 123.053 49.8607 123.158C49.3519 123.281 48.8519 123.342 48.3607 123.342C47.7291 123.342 47.2729 123.219 46.9922 122.974C46.7115 122.711 46.5624 122.289 46.5448 121.71C45.5799 122.798 44.2202 123.342 42.4657 123.342C41.571 123.342 40.7727 123.175 40.0709 122.842C39.3692 122.491 38.8253 122.009 38.4393 121.395C38.0533 120.781 37.8603 120.088 37.8603 119.316C37.8603 118.158 38.2902 117.202 39.1499 116.447C40.0095 115.693 41.0797 115.149 42.3605 114.816C43.6412 114.465 44.9307 114.289 46.229 114.289V113.5C46.229 112.307 45.9571 111.473 45.4132 111C44.8693 110.526 44.0623 110.289 42.9921 110.289C42.4131 110.289 41.7552 110.386 41.0183 110.579C40.2815 110.772 39.6411 111.017 39.0972 111.315L38.4919 109.868C39.0884 109.377 39.9393 109 41.0446 108.736C42.1675 108.456 43.1938 108.315 44.1237 108.315ZM46.229 115.868C44.9132 115.868 43.7289 116.105 42.6763 116.579C41.6412 117.052 41.1236 117.807 41.1236 118.842C41.1236 120.544 42.0271 121.395 43.8342 121.395C44.2553 121.395 44.6851 121.307 45.1237 121.132C45.5799 120.956 45.9395 120.746 46.2027 120.5L46.229 115.868ZM54.9462 121.368V111.658L53.1303 110.579V109.473L57.0252 108.315L57.7621 108.552V110.736C58.0428 110.157 58.613 109.614 59.4726 109.105C60.3499 108.579 61.1569 108.315 61.8938 108.315C62.5605 108.315 62.9903 108.35 63.1833 108.421V111.579C62.5517 111.263 61.7973 111.105 60.9201 111.105C59.8323 111.105 58.9288 111.342 58.2094 111.815V121.316L61.6043 121.658V123H53.0514V121.658L54.9462 121.368ZM71.2627 108.315C72.9645 108.315 74.2803 108.693 75.2102 109.447C76.14 110.201 76.605 111.465 76.605 113.237V121.658H78.2366V122.711C77.9208 122.904 77.5085 123.053 76.9997 123.158C76.4909 123.281 75.9909 123.342 75.4997 123.342C74.8681 123.342 74.4119 123.219 74.1312 122.974C73.8505 122.711 73.7014 122.289 73.6838 121.71C72.7189 122.798 71.3592 123.342 69.6047 123.342C68.71 123.342 67.9117 123.175 67.2099 122.842C66.5081 122.491 65.9643 122.009 65.5783 121.395C65.1923 120.781 64.9993 120.088 64.9993 119.316C64.9993 118.158 65.4292 117.202 66.2888 116.447C67.1485 115.693 68.2187 115.149 69.4995 114.816C70.7802 114.465 72.0697 114.289 73.368 114.289V113.5C73.368 112.307 73.0961 111.473 72.5522 111C72.0083 110.526 71.2013 110.289 70.1311 110.289C69.5521 110.289 68.8942 110.386 68.1573 110.579C67.4205 110.772 66.7801 111.017 66.2362 111.315L65.6309 109.868C66.2274 109.377 67.0783 109 68.1836 108.736C69.3065 108.456 70.3328 108.315 71.2627 108.315ZM73.368 115.868C72.0522 115.868 70.8679 116.105 69.8153 116.579C68.7801 117.052 68.2626 117.807 68.2626 118.842C68.2626 120.544 69.1661 121.395 70.9732 121.395C71.3943 121.395 71.8241 121.307 72.2627 121.132C72.7189 120.956 73.0785 120.746 73.3417 120.5L73.368 115.868ZM84.8747 108.631H89.1907V110.5H84.9537V116.368C84.9537 117.719 84.98 118.71 85.0326 119.342C85.1028 119.974 85.2344 120.447 85.4274 120.763C85.6379 121.061 85.98 121.21 86.4537 121.21C86.8222 121.21 87.2695 121.149 87.7959 121.026C88.3398 120.903 88.717 120.772 88.9275 120.632L89.4538 121.895C89.0152 122.333 88.3573 122.684 87.4801 122.947C86.6204 123.193 85.7958 123.316 85.0063 123.316C83.8835 123.316 83.0677 122.991 82.5589 122.342C82.0501 121.693 81.7957 120.667 81.7957 119.263V110.5H79.8483V109.368C80.6729 109.157 81.2167 109 81.4799 108.894C81.7606 108.771 82.0062 108.543 82.2168 108.21C82.4799 107.754 82.8396 106.745 83.2957 105.184H84.8747V108.631Z" fill="#5A3412"/>
<path d="M105.674 107.605V108.052H102.043V113.158H97.8057C96.3495 113.158 95.253 113.456 94.5161 114.052C93.7793 114.631 93.4108 115.43 93.4108 116.447C93.4108 117.254 93.6828 117.93 94.2267 118.474C94.7881 119.017 95.446 119.421 96.2004 119.684C96.9548 119.93 97.6127 120.053 98.1741 120.053C98.6128 120.053 99.1128 120.017 99.6742 119.947L98.5163 117.237C98.8496 116.851 99.2356 116.561 99.6742 116.368C100.113 116.175 100.543 116.079 100.964 116.079C101.858 116.079 102.543 116.342 103.016 116.868C103.508 117.395 103.753 118.052 103.753 118.842C103.736 119.403 103.56 119.93 103.227 120.421C102.894 120.912 102.429 121.333 101.832 121.684L104.648 126.158L102.78 127.158L100.622 122.184C99.9198 122.395 99.104 122.5 98.1741 122.5C97.2969 122.5 96.3846 122.228 95.4372 121.684C94.4898 121.14 93.6915 120.36 93.0424 119.342C92.3933 118.324 92.0687 117.131 92.0687 115.763C92.0687 113.938 92.4985 112.622 93.3582 111.815C94.2354 111.008 95.5162 110.605 97.2004 110.605H99.2531V108.052H90.3844L89.4107 106.184V105.71H104.701L105.674 107.605ZM122.968 108.052V124.105H122.468L120.178 122.789V108.052H115.81C116.529 108.877 116.889 109.886 116.889 111.079C116.889 112.061 116.66 113.07 116.204 114.105C115.766 115.123 115.16 116.044 114.388 116.868C113.634 117.675 112.801 118.254 111.888 118.605L115.046 123.368L112.941 124.526L110.652 118.921C110.529 118.938 110.362 118.947 110.151 118.947C109.748 118.947 109.283 118.851 108.757 118.658C108.23 118.447 107.783 118.175 107.415 117.842C107.046 117.509 106.862 117.158 106.862 116.789C106.862 116.403 106.967 116.052 107.178 115.737C107.388 115.403 107.651 115.149 107.967 114.973C108.283 114.78 108.572 114.684 108.836 114.684C109.064 114.684 109.23 114.71 109.336 114.763L110.546 116.605C111.476 116.184 112.301 115.517 113.02 114.605C111.704 114.044 110.581 113.254 109.651 112.237C108.722 111.219 108.257 110.131 108.257 108.973C108.257 108.64 108.309 108.333 108.415 108.052H105.599L104.625 106.184V105.71H124.652L125.652 107.605V108.052H122.968ZM114.546 110.368C114.546 109.772 114.336 109.245 113.915 108.789C113.511 108.315 112.967 108.078 112.283 108.078C111.845 108.078 111.476 108.228 111.178 108.526C110.88 108.807 110.73 109.219 110.73 109.763C110.73 110.5 111.029 111.219 111.625 111.921C112.239 112.605 112.95 113.105 113.757 113.421C114.283 112.368 114.546 111.351 114.546 110.368ZM121.333 96.8939C122.228 96.8939 123.096 97.122 123.938 97.5782C124.763 98.0343 125.5 98.6571 126.149 99.4466L125.438 100.526C125.087 100.245 124.596 99.973 123.965 99.7098C123.333 99.4291 122.728 99.2887 122.149 99.2887C121.535 99.2887 121.017 99.4993 120.596 99.9203C120.175 100.324 119.964 100.894 119.964 101.631C119.964 102.368 120.175 103.113 120.596 103.868C121.017 104.622 121.517 105.306 122.096 105.921L120.386 106.447L120.307 105.815C119.342 105.096 118.561 104.28 117.964 103.368C117.35 102.456 117.043 101.561 117.043 100.684C117.043 99.894 117.254 99.2186 117.675 98.6571C118.096 98.0782 118.64 97.6396 119.307 97.3413C119.956 97.0431 120.631 96.8939 121.333 96.8939ZM141.831 107.631V108.078H139.147V124.132H138.647L136.357 122.816V115.026L130.752 115.395L131.12 118C130.734 118.088 130.331 118.131 129.91 118.131C129.454 118.131 128.962 118.026 128.436 117.816C127.91 117.588 127.453 117.245 127.068 116.789C126.699 116.333 126.515 115.772 126.515 115.105C126.515 114.14 126.813 113.508 127.41 113.21C128.006 112.894 128.699 112.737 129.489 112.737C131.226 112.737 133.515 112.868 136.357 113.131V108.052H125.567L124.594 106.184V105.71H140.805L141.831 107.631Z" fill="#5A3412"/>
<defs>
<clipPath id="clip0_285_5144">
<rect width="98" height="46.4602" fill="white" transform="translate(22 48)"/>
</clipPath>
</defs>
</svg>
